<?xml version="1.0" encoding="UTF-8"?>
<svg id="Layer_2" data-name="Layer 2" xmlns="http://www.w3.org/2000/svg" width="141.73" height="141.73" viewBox="0 0 141.73 141.73">
  <defs>
    <style>
      .cls-1, .cls-2 {
        fill: #da291c;
      }

      .cls-3 {
        fill: #fff;
      }

      .cls-3, .cls-2 {
        fill-rule: evenodd;
      }

      .cls-4 {
        fill: #dc0d15;
      }
    </style>
  </defs>
  <g id="Layer_1-2" data-name="Layer 1">
    <g>
      <path class="cls-1" d="M48.23,136.85l-1.11-2.28c-.22-.44,.28-.92,.74-.72l.88,.38c.76,.32,1.36,.89,1.71,1.61l1.11,2.28c.21,.44-.28,.92-.74,.72l-.89-.38c-.76-.32-1.36-.89-1.71-1.61h0Z"/>
      <path class="cls-1" d="M52.89,138.27l-1.27-2.2c-.25-.42,.21-.94,.69-.77l.91,.31c.78,.27,1.42,.79,1.82,1.48l1.27,2.2c.25,.42-.21,.94-.69,.77l-.91-.31c-.78-.27-1.42-.79-1.82-1.48h0Z"/>
      <path class="cls-1" d="M57.63,139.35l-1.42-2.1c-.27-.41,.15-.95,.64-.82l.93,.25c.8,.21,1.47,.69,1.92,1.36l1.42,2.1c.27,.4-.15,.95-.63,.82l-.93-.25c-.79-.21-1.47-.69-1.91-1.35h0Z"/>
      <path class="cls-1" d="M62.44,140.11l-1.56-2c-.3-.39,.08-.96,.57-.86l.95,.19c.81,.16,1.51,.59,2.01,1.21l1.56,2c.3,.38-.09,.96-.58,.86l-.94-.19c-.81-.16-1.51-.58-2.01-1.22h0Z"/>
      <path class="cls-1" d="M67.3,140.54l-1.7-1.89c-.33-.36,.02-.96,.52-.9l.95,.12c.82,.1,1.55,.48,2.09,1.08l1.7,1.88c.32,.36-.02,.96-.52,.9l-.96-.12c-.81-.1-1.55-.48-2.08-1.07h0Z"/>
      <path class="cls-1" d="M72.17,140.61l-1.82-1.77c-.35-.34-.05-.96,.45-.93l.96,.05c.82,.04,1.58,.37,2.16,.92l1.82,1.77c.35,.34,.05,.96-.45,.93l-.96-.05c-.83-.04-1.58-.37-2.16-.92h0Z"/>
      <path class="cls-1" d="M77.03,140.35l-1.94-1.64c-.37-.31-.12-.95,.38-.96h.96c.82-.03,1.6,.24,2.21,.76l1.95,1.63c.37,.31,.12,.95-.39,.96h-.96c-.82,.03-1.6-.24-2.21-.75h0Z"/>
      <path class="cls-1" d="M81.87,139.75l-2.06-1.49c-.39-.28-.18-.95,.32-.99l.96-.08c.81-.07,1.62,.14,2.26,.62l2.06,1.49c.39,.29,.18,.95-.32,.98l-.96,.09c-.82,.07-1.62-.15-2.26-.62h0Z"/>
      <path class="cls-1" d="M86.64,138.82l-2.15-1.35c-.41-.25-.25-.93,.25-1l.95-.15c.81-.13,1.62,.03,2.3,.46l2.15,1.34c.41,.26,.24,.93-.25,1.01l-.95,.15c-.81,.13-1.62-.04-2.3-.46h0Z"/>
      <polygon class="cls-2" points="55.01 124.82 50.56 125.87 50.21 130.46 47.84 126.55 43.37 127.64 46.35 124.18 43.94 120.26 48.15 122.03 51.13 118.52 50.75 123.07 55.01 124.82 55.01 124.82"/>
      <polygon class="cls-2" points="76.86 126.78 73.15 129.45 74.59 133.82 70.91 131.12 67.19 133.84 68.62 129.5 64.89 126.81 69.46 126.83 70.87 122.45 72.26 126.79 76.86 126.78 76.86 126.78"/>
      <path class="cls-1" d="M70.87,106.96c-19.91,0-36.1-16.19-36.1-36.09,0-19.91,16.19-36.1,36.09-36.11,19.9,0,36.1,16.19,36.11,36.09,0,19.91-16.19,36.1-36.09,36.1h0Z"/>
      <path class="cls-4" d="M70.86,23.35c-26.2,0-47.52,21.32-47.51,47.52,0,26.2,21.33,47.51,47.53,47.51,26.2,0,47.51-21.32,47.51-47.52,0-26.2-21.32-47.51-47.52-47.51h0Zm.01,96.12c-26.8,0-48.61-21.8-48.61-48.6,0-26.8,21.8-48.61,48.6-48.61,26.8,0,48.61,21.8,48.61,48.6,0,26.8-21.8,48.61-48.6,48.61h0Z"/>
      <polygon class="cls-1" points="48.47 107.82 49.81 108.66 49.22 109.61 45.38 107.2 45.98 106.25 47.34 107.11 49.88 103.06 51.01 103.77 48.47 107.82 48.47 107.82"/>
      <path class="cls-1" d="M5.69,45.94l2.32-1.03c.44-.2,.91,.31,.7,.77l-.41,.87c-.35,.74-.94,1.32-1.67,1.65l-2.32,1.03c-.44,.19-.91-.32-.69-.77l.41-.87c.35-.74,.94-1.33,1.67-1.65h0Z"/>
      <path class="cls-1" d="M4.1,50.55l2.25-1.19c.43-.23,.93,.25,.75,.72l-.35,.9c-.3,.76-.84,1.39-1.55,1.76l-2.24,1.19c-.43,.23-.93-.25-.75-.71l.34-.9c.3-.77,.85-1.38,1.55-1.76h0Z"/>
      <path class="cls-1" d="M2.85,55.25l2.15-1.35c.41-.26,.94,.19,.8,.67l-.28,.92c-.24,.79-.75,1.44-1.42,1.87l-2.16,1.34c-.41,.26-.94-.18-.79-.66l.28-.92c.25-.79,.75-1.44,1.42-1.87h0Z"/>
      <path class="cls-1" d="M1.93,60.03l2.06-1.49c.39-.28,.95,.12,.84,.61l-.22,.94c-.19,.8-.64,1.49-1.29,1.96l-2.05,1.49c-.39,.29-.95-.12-.84-.6l.22-.94c.19-.8,.64-1.49,1.28-1.96h0Z"/>
      <path class="cls-1" d="M1.34,64.87l1.94-1.63c.37-.31,.96,.05,.88,.55l-.15,.95c-.13,.81-.53,1.53-1.14,2.05l-1.95,1.63c-.37,.31-.96-.05-.88-.54l.15-.95c.13-.81,.54-1.53,1.14-2.05h0Z"/>
      <path class="cls-1" d="M1.09,69.73l1.82-1.77c.35-.33,.96-.01,.91,.49l-.08,.96c-.08,.82-.43,1.56-1,2.12l-1.83,1.76c-.35,.34-.96,.01-.91-.49l.09-.96c.07-.82,.42-1.57,1-2.12h0Z"/>
      <path class="cls-1" d="M1.18,74.6l1.7-1.89c.33-.36,.96-.08,.95,.42l-.02,.96c-.01,.82-.31,1.59-.85,2.18l-1.7,1.89c-.32,.36-.96,.08-.95-.42l.02-.96c.01-.82,.31-1.59,.85-2.18h0Z"/>
      <path class="cls-1" d="M1.61,79.45l1.56-2c.3-.38,.95-.15,.98,.35l.05,.97c.04,.81-.21,1.61-.7,2.23l-1.56,2c-.3,.38-.95,.15-.98-.35l-.05-.96c-.04-.82,.21-1.61,.7-2.24h0Z"/>
      <path class="cls-1" d="M2.38,84.26l1.42-2.1c.27-.41,.94-.22,1,.28l.12,.96c.1,.81-.09,1.62-.54,2.28l-1.42,2.1c-.27,.41-.94,.21-.99-.28l-.12-.95c-.1-.82,.09-1.62,.54-2.28h0Z"/>
      <path class="cls-1" d="M3.48,89l1.27-2.2c.24-.42,.92-.28,1.02,.21l.18,.95c.15,.81,.02,1.62-.38,2.31l-1.27,2.2c-.25,.42-.92,.28-1.02-.21l-.18-.95c-.15-.81-.02-1.62,.38-2.31h0Z"/>
      <path class="cls-1" d="M4.91,93.66l1.11-2.29c.21-.43,.9-.34,1.02,.14l.25,.93c.22,.79,.14,1.61-.21,2.33l-1.11,2.28c-.21,.44-.9,.34-1.03-.14l-.24-.93c-.21-.79-.14-1.62,.22-2.33h0Z"/>
      <path class="cls-1" d="M6.66,98.2l.95-2.35c.18-.45,.88-.41,1.04,.07l.31,.91c.27,.78,.25,1.6-.05,2.35l-.95,2.35c-.18,.45-.87,.41-1.03-.07l-.31-.91c-.26-.78-.25-1.6,.05-2.34h0Z"/>
      <path class="cls-1" d="M8.72,102.61l.78-2.41c.15-.47,.84-.47,1.03,0l.38,.89c.32,.75,.36,1.58,.11,2.34l-.78,2.41c-.15,.46-.85,.46-1.04,0l-.37-.89c-.32-.76-.36-1.58-.12-2.34h0Z"/>
      <path class="cls-1" d="M11.09,106.87l.61-2.46c.12-.48,.81-.53,1.03-.08l.44,.86c.37,.74,.46,1.56,.27,2.33l-.62,2.46c-.12,.47-.81,.52-1.03,.07l-.43-.86c-.37-.73-.47-1.55-.28-2.33h0Z"/>
      <path class="cls-1" d="M13.75,110.94l.44-2.5c.08-.48,.77-.58,1.03-.15l.49,.83c.42,.7,.57,1.52,.44,2.3l-.44,2.5c-.09,.48-.77,.58-1.03,.15l-.49-.83c-.42-.71-.57-1.52-.44-2.31h0Z"/>
      <path class="cls-1" d="M16.68,114.83l.27-2.52c.05-.48,.72-.63,1.01-.22l.55,.79c.47,.67,.68,1.47,.6,2.26l-.27,2.52c-.05,.48-.73,.63-1.01,.22l-.55-.79c-.47-.67-.68-1.47-.6-2.27h0Z"/>
      <path class="cls-1" d="M19.89,118.5l.09-2.54c.02-.49,.68-.68,.99-.29l.61,.75c.51,.64,.78,1.42,.75,2.22l-.09,2.54c-.01,.48-.68,.68-.99,.29l-.6-.75c-.52-.64-.78-1.42-.76-2.22h0Z"/>
      <path class="cls-1" d="M23.33,121.94l-.09-2.54c-.01-.49,.63-.72,.97-.36l.66,.7c.56,.6,.88,1.37,.91,2.16l.09,2.53c.02,.49-.63,.73-.97,.36l-.65-.7c-.56-.6-.88-1.36-.91-2.16h0Z"/>
      <path class="cls-1" d="M27.01,125.13l-.27-2.53c-.05-.48,.58-.77,.95-.42l.7,.66c.6,.56,.97,1.3,1.06,2.09l.27,2.52c.05,.48-.58,.76-.94,.43l-.71-.66c-.6-.56-.97-1.3-1.05-2.09h0Z"/>
      <path class="cls-1" d="M30.91,128.06l-.44-2.5c-.08-.48,.52-.81,.92-.49l.75,.61c.63,.52,1.06,1.23,1.19,2.01l.44,2.5c.08,.48-.52,.8-.91,.49l-.75-.61c-.64-.52-1.06-1.23-1.2-2.02h0Z"/>
      <path class="cls-1" d="M35,130.7l-.62-2.46c-.12-.47,.47-.84,.88-.55l.79,.55c.67,.47,1.14,1.15,1.33,1.93l.62,2.46c.12,.47-.47,.84-.88,.55l-.79-.55c-.67-.48-1.14-1.15-1.33-1.93h0Z"/>
      <path class="cls-1" d="M39.26,133.06l-.79-2.41c-.15-.46,.4-.87,.84-.61l.83,.5c.7,.43,1.22,1.07,1.47,1.82l.79,2.42c.15,.46-.41,.87-.84,.61l-.82-.5c-.7-.42-1.22-1.07-1.47-1.83h0Z"/>
      <path class="cls-1" d="M43.68,135.11l-.95-2.35c-.18-.45,.35-.9,.79-.67l.85,.44c.74,.37,1.3,.98,1.59,1.72l.95,2.35c.19,.45-.34,.9-.79,.67l-.86-.44c-.73-.37-1.29-.98-1.59-1.72h0Z"/>
      <polygon class="cls-2" points="16.91 55.01 15.87 50.56 11.27 50.21 15.18 47.84 14.09 43.37 17.55 46.35 21.47 43.94 19.7 48.15 23.21 51.13 18.66 50.75 16.91 55.01 16.91 55.01"/>
      <polygon class="cls-2" points="14.95 76.86 12.28 73.15 7.91 74.59 10.61 70.91 7.89 67.19 12.23 68.62 14.92 64.89 14.9 69.45 19.29 70.87 14.94 72.26 14.95 76.86 14.95 76.86"/>
      <polygon class="cls-2" points="21.5 97.8 17.62 95.4 14.12 98.4 15.21 93.96 11.28 91.57 15.83 91.23 16.89 86.75 18.62 90.98 23.21 90.6 19.73 93.55 21.5 97.8 21.5 97.8"/>
      <polygon class="cls-2" points="35.57 114.64 31.06 113.91 28.98 118.02 28.29 113.5 23.74 112.8 27.81 110.74 27.08 106.2 30.3 109.44 34.39 107.34 32.3 111.4 35.57 114.64 35.57 114.64"/>
      <path class="cls-1" d="M42.03,105.79c-.23,.26-.6,.28-.85,.05-.24-.21-.26-.58-.03-.83,.21-.24,.58-.29,.83-.06,.26,.23,.27,.6,.06,.85h0Zm.34-.95l2.24-2.55c.67-.76,.72-1.4,.21-1.86-.53-.46-1.14-.35-1.83,.43l-2.25,2.55-1-.88,2.19-2.48c1.2-1.36,2.46-1.41,3.62-.39,1.12,.98,1.23,2.18-.02,3.59l-2.18,2.47-1-.88h0Zm-1.7-.25c-.23,.26-.59,.29-.85,.06-.25-.22-.27-.58-.04-.84,.21-.24,.58-.29,.83-.06,.26,.23,.27,.6,.05,.84h0Z"/>
      <path class="cls-1" d="M38.92,97.68l-.33-.41c-.42-.52-.92-.61-1.33-.29-.42,.34-.4,.8-.02,1.28,.2,.25,.34,.38,.41,.44l1.26-1.02h0Zm-1.14,2.62c-.33-.29-.77-.75-1.21-1.3-.55-.68-.83-1.24-.84-1.77,0-.45,.2-.86,.62-1.2,.59-.47,1.32-.38,1.78-.11l.02-.02c-.13-.42,.03-.85,.36-1.3,.4-.56,.88-1.19,.99-1.42l.86,1.06c-.07,.18-.35,.59-.81,1.18-.47,.58-.47,.91-.13,1.34l.25,.31,1.8-1.46,.83,1.02-4.52,3.66h0Z"/>
      <path class="cls-1" d="M33.48,94.76l-.66-1.15,2.26-1.3v-.02c-.27,0-.53-.02-.77-.03l-2.36-.18-.82-1.42,3.15,.44,1.91-3.47,.78,1.35-1.49,2.52,.79,.13,1.67-.96,.66,1.15-5.11,2.94h0Z"/>
      <path class="cls-1" d="M29.69,87.29l5.44-2.27,.51,1.23-5.44,2.28-.51-1.23h0Zm-.38,1.53c-.32,.13-.66-.02-.79-.33-.13-.31,.02-.64,.33-.77,.29-.12,.64,0,.77,.31,.13,.32-.02,.67-.31,.8h0Z"/>
      <path class="cls-1" d="M34.02,81.81l-2.33,.65-2.86,2.73-.41-1.47,1.21-.96c.36-.29,.63-.49,.97-.74v-.02c-.4-.03-.76-.07-1.21-.13l-1.53-.19-.4-1.44,3.83,.95,2.37-.66,.36,1.28h0Z"/>
      <polygon class="cls-1" points="30.02 73.99 30.28 76.15 31.67 75.98 31.38 73.58 32.46 73.44 32.91 77.18 27.06 77.88 26.62 74.27 27.71 74.14 27.98 76.42 29.2 76.28 28.94 74.12 30.02 73.99 30.02 73.99"/>
      <path class="cls-1" d="M32.71,64.65c.1,.26,.17,.82,.1,1.53-.21,2.03-1.58,2.94-3.25,2.77-2-.21-2.97-1.75-2.78-3.53,.07-.69,.27-1.2,.41-1.42l1.02,.38c-.14,.26-.28,.62-.33,1.09-.11,1.05,.44,1.94,1.75,2.07,1.18,.12,1.99-.5,2.11-1.68,.04-.4,0-.85-.08-1.13l1.06-.09h0Z"/>
      <path class="cls-1" d="M27.83,60.21l3.28,.89c.98,.27,1.58,.03,1.76-.63,.19-.68-.19-1.18-1.19-1.45l-3.28-.89,.35-1.28,3.19,.87c1.76,.48,2.35,1.59,1.95,3.08-.39,1.43-1.42,2.06-3.23,1.57l-3.18-.87,.35-1.29h0Z"/>
      <path class="cls-1" d="M35.24,51.12c-.65-.29-1.43-.65-2.19-1.03v.02c.58,.5,1.22,1.09,1.74,1.6l1.74,1.66-.46,.93-2.32-.45c-.7-.13-1.55-.33-2.3-.54v.02c.69,.38,1.49,.81,2.13,1.18l1.96,1.09-.55,1.1-5.12-2.95,.79-1.59,2.02,.36c.69,.14,1.43,.3,2.11,.49v-.02c-.53-.45-1.14-.98-1.64-1.44l-1.48-1.43,.77-1.56,5.43,2.33-.58,1.17-2.06-.92h0Z"/>
      <polygon class="cls-1" points="35.09 44.66 36.88 46.05 38.22 44.31 36.43 42.92 37.24 41.87 41.91 45.47 41.1 46.53 39.14 45.02 37.8 46.76 39.76 48.27 38.94 49.33 34.27 45.72 35.09 44.66 35.09 44.66"/>
      <path class="cls-1" d="M135.08,43.53l-.95,2.35c-.19,.45-.87,.4-1.03-.07l-.31-.91c-.27-.78-.25-1.6,.05-2.34l.95-2.35c.18-.45,.88-.41,1.03,.07l.31,.91c.27,.78,.25,1.6-.05,2.34h0Z"/>
      <path class="cls-1" d="M133.01,39.12l-.79,2.42c-.14,.46-.84,.46-1.03,0l-.37-.89c-.32-.76-.36-1.58-.11-2.34l.78-2.42c.15-.46,.84-.47,1.04,0l.38,.89c.32,.76,.36,1.58,.11,2.34h0Z"/>
      <path class="cls-1" d="M130.64,34.87l-.61,2.46c-.12,.48-.81,.53-1.03,.08l-.44-.86c-.37-.73-.46-1.55-.28-2.33l.61-2.46c.12-.47,.81-.52,1.04-.07l.43,.86c.37,.73,.47,1.55,.28,2.33h0Z"/>
      <path class="cls-1" d="M127.99,30.79l-.44,2.5c-.08,.48-.77,.58-1.03,.15l-.49-.83c-.42-.71-.58-1.52-.44-2.3l.44-2.5c.09-.48,.77-.58,1.03-.15l.49,.83c.42,.71,.57,1.52,.44,2.31h0Z"/>
      <path class="cls-1" d="M125.05,26.9l-.27,2.52c-.05,.48-.73,.63-1.01,.22l-.55-.79c-.47-.67-.68-1.47-.6-2.27l.26-2.52c.05-.49,.73-.63,1.01-.22l.55,.79c.47,.67,.68,1.47,.6,2.27h0Z"/>
      <path class="cls-1" d="M121.85,23.23l-.08,2.54c-.02,.49-.68,.68-1,.29l-.6-.75c-.52-.64-.78-1.42-.76-2.22l.09-2.54c.02-.49,.68-.68,1-.29l.6,.75c.52,.64,.78,1.42,.75,2.22h0Z"/>
      <path class="cls-1" d="M118.4,19.79l.09,2.54c.02,.49-.63,.72-.97,.36l-.66-.71c-.56-.6-.88-1.37-.91-2.16l-.09-2.54c-.01-.49,.64-.72,.98-.36l.65,.71c.56,.6,.88,1.37,.91,2.16h0Z"/>
      <path class="cls-1" d="M114.72,16.6l.27,2.52c.05,.48-.58,.77-.95,.43l-.71-.66c-.6-.56-.97-1.3-1.06-2.09l-.27-2.52c-.05-.48,.58-.76,.94-.43l.7,.66c.6,.56,.97,1.3,1.06,2.09h0Z"/>
      <path class="cls-1" d="M110.83,13.67l.44,2.5c.08,.48-.53,.81-.92,.49l-.74-.61c-.64-.52-1.06-1.23-1.2-2.02l-.44-2.5c-.09-.48,.52-.81,.91-.49l.75,.61c.64,.52,1.06,1.23,1.2,2.01h0Z"/>
      <path class="cls-1" d="M106.74,11.03l.62,2.46c.12,.47-.47,.84-.88,.55l-.79-.55c-.67-.47-1.14-1.15-1.34-1.92l-.62-2.46c-.12-.47,.47-.84,.88-.55l.78,.55c.67,.48,1.15,1.16,1.34,1.93h0Z"/>
      <path class="cls-1" d="M102.48,8.67l.79,2.41c.15,.46-.41,.87-.84,.61l-.82-.5c-.7-.43-1.22-1.07-1.47-1.83l-.79-2.41c-.15-.46,.41-.87,.84-.61l.82,.5c.7,.42,1.22,1.07,1.47,1.82h0Z"/>
      <path class="cls-1" d="M98.06,6.62l.95,2.35c.18,.45-.35,.9-.8,.67l-.85-.44c-.73-.37-1.29-.98-1.59-1.72l-.95-2.35c-.18-.45,.35-.9,.79-.67l.86,.44c.73,.37,1.29,.98,1.59,1.72h0Z"/>
      <path class="cls-1" d="M93.51,4.88l1.11,2.28c.21,.44-.28,.92-.74,.72l-.89-.38c-.75-.32-1.36-.89-1.71-1.61l-1.11-2.28c-.21-.43,.28-.92,.74-.72l.89,.38c.76,.32,1.36,.89,1.71,1.61h0Z"/>
      <path class="cls-1" d="M88.85,3.46l1.27,2.2c.24,.42-.22,.94-.69,.77l-.91-.31c-.78-.27-1.42-.79-1.82-1.48l-1.27-2.19c-.25-.43,.22-.94,.69-.77l.91,.32c.78,.27,1.42,.79,1.82,1.48h0Z"/>
      <path class="cls-1" d="M84.1,2.37l1.42,2.1c.27,.41-.16,.95-.64,.82l-.93-.25c-.8-.22-1.47-.69-1.92-1.35l-1.42-2.11c-.27-.4,.15-.95,.64-.82l.93,.26c.79,.21,1.47,.69,1.91,1.35h0Z"/>
      <path class="cls-1" d="M79.29,1.62l1.56,2c.3,.38-.09,.96-.58,.86l-.94-.18c-.81-.16-1.52-.59-2.01-1.22l-1.56-2c-.3-.38,.08-.95,.57-.86l.94,.19c.81,.16,1.51,.58,2.01,1.21h0Z"/>
      <path class="cls-1" d="M74.44,1.2l1.7,1.88c.33,.36-.02,.96-.52,.9l-.95-.11c-.82-.11-1.55-.48-2.09-1.08l-1.7-1.89c-.32-.36,.02-.96,.52-.9l.96,.12c.81,.1,1.55,.48,2.09,1.07h0Z"/>
      <path class="cls-1" d="M69.57,1.12l1.83,1.77c.35,.34,.05,.96-.45,.93l-.96-.05c-.82-.04-1.58-.37-2.16-.92l-1.83-1.76c-.35-.34-.05-.96,.45-.93l.96,.05c.82,.04,1.58,.37,2.16,.92h0Z"/>
      <path class="cls-1" d="M64.7,1.38l1.94,1.63c.37,.31,.11,.95-.39,.96h-.96c-.82,.03-1.6-.24-2.21-.76l-1.95-1.63c-.37-.31-.12-.95,.38-.96l.96-.02c.82-.01,1.6,.26,2.21,.77h0Z"/>
      <path class="cls-1" d="M59.87,1.98l2.06,1.49c.39,.29,.18,.94-.32,.99l-.96,.08c-.82,.07-1.62-.15-2.26-.61l-2.05-1.49c-.39-.29-.19-.95,.32-.99l.96-.08c.82-.07,1.61,.15,2.26,.62h0Z"/>
      <path class="cls-1" d="M55.09,2.91l2.15,1.34c.41,.26,.25,.93-.25,1.01l-.95,.15c-.81,.13-1.62-.03-2.3-.46l-2.15-1.34c-.41-.26-.25-.93,.24-1.01l.95-.15c.81-.13,1.62,.03,2.3,.46h0Z"/>
      <path class="cls-1" d="M50.39,4.18l2.24,1.19c.43,.24,.31,.91-.18,1.02l-.94,.21c-.8,.18-1.62,.08-2.32-.3l-2.25-1.19c-.43-.23-.31-.91,.18-1.02l.94-.22c.8-.18,1.62-.08,2.33,.3h0Z"/>
      <path class="cls-1" d="M45.78,5.77l2.32,1.03c.44,.2,.38,.89-.1,1.04l-.93,.28c-.79,.24-1.61,.19-2.34-.13l-2.32-1.03c-.45-.2-.38-.89,.1-1.03l.92-.28c.79-.24,1.61-.19,2.34,.13h0Z"/>
      <path class="cls-1" d="M41.3,7.67l2.39,.87c.46,.17,.44,.86-.03,1.04l-.9,.34c-.76,.3-1.6,.31-2.34,.03l-2.38-.86c-.45-.17-.43-.86,.03-1.04l.9-.34c.76-.29,1.59-.3,2.34-.03h0Z"/>
      <path class="cls-1" d="M36.96,9.89l2.44,.7c.47,.13,.5,.83,.04,1.04l-.88,.4c-.75,.34-1.57,.41-2.33,.2l-2.45-.7c-.46-.13-.49-.83-.04-1.04l.87-.41c.75-.35,1.57-.41,2.34-.19h0Z"/>
      <path class="cls-1" d="M32.79,12.4l2.48,.53c.48,.1,.55,.79,.11,1.03l-.84,.47c-.72,.4-1.54,.52-2.32,.36l-2.48-.53c-.48-.1-.55-.79-.12-1.03l.85-.47c.72-.4,1.54-.52,2.31-.36h0Z"/>
      <path class="cls-1" d="M28.8,15.2l2.51,.35c.48,.07,.61,.75,.18,1.02l-.81,.52c-.69,.45-1.5,.63-2.28,.52l-2.52-.35c-.48-.07-.6-.75-.18-1.02l.81-.53c.69-.44,1.5-.62,2.29-.51h0Z"/>
      <path class="cls-1" d="M25.02,18.27l2.53,.18c.49,.03,.66,.7,.25,1.01l-.77,.57c-.65,.49-1.45,.73-2.24,.68l-2.53-.18c-.49-.04-.66-.7-.26-1.01l.77-.58c.65-.49,1.45-.73,2.25-.67h0Z"/>
      <path class="cls-1" d="M21.46,21.59h2.54c.48,0,.7,.66,.32,.99l-.73,.63c-.62,.54-1.39,.83-2.19,.83h-2.53c-.49,0-.71-.66-.33-.98l.73-.63c.62-.54,1.39-.83,2.19-.83h0Z"/>
      <path class="cls-1" d="M18.14,25.16l2.53-.18c.49-.04,.75,.61,.4,.96l-.69,.68c-.58,.58-1.33,.92-2.12,.98l-2.54,.18c-.49,.03-.75-.61-.39-.96l.68-.68c.58-.58,1.33-.92,2.13-.98h0Z"/>
      <path class="cls-1" d="M15.09,28.95l2.51-.35c.48-.07,.78,.56,.45,.93l-.63,.73c-.54,.62-1.27,1.02-2.05,1.13l-2.51,.36c-.48,.07-.79-.55-.46-.93l.63-.72c.54-.62,1.26-1.02,2.06-1.13h0Z"/>
      <path class="cls-1" d="M12.29,32.94l2.48-.53c.48-.1,.83,.49,.52,.9l-.58,.77c-.49,.65-1.19,1.1-1.97,1.27l-2.48,.53c-.47,.1-.82-.5-.52-.89l.58-.77c.5-.66,1.19-1.11,1.97-1.27h0Z"/>
      <path class="cls-1" d="M9.79,37.12l2.44-.7c.47-.13,.86,.44,.59,.86l-.53,.81c-.45,.69-1.11,1.19-1.88,1.41l-2.44,.7c-.47,.13-.86-.44-.59-.86l.53-.81c.45-.69,1.11-1.18,1.88-1.4h0Z"/>
      <path class="cls-1" d="M7.59,41.46l2.38-.86c.45-.17,.88,.38,.64,.81l-.47,.84c-.4,.72-1.03,1.26-1.78,1.53l-2.38,.87c-.46,.17-.89-.38-.64-.81l.47-.84c.4-.72,1.03-1.26,1.78-1.53h0Z"/>
      <polygon class="cls-2" points="64.87 14.95 68.58 12.28 67.14 7.91 70.83 10.61 74.54 7.89 73.11 12.23 76.84 14.92 72.28 14.9 70.87 19.29 69.48 14.94 64.87 14.95 64.87 14.95"/>
      <polygon class="cls-2" points="43.93 21.5 46.33 17.62 43.33 14.12 47.77 15.21 50.16 11.28 50.5 15.83 54.98 16.89 50.75 18.62 51.13 23.21 48.18 19.73 43.93 21.5 43.93 21.5"/>
      <polygon class="cls-2" points="27.09 35.57 27.82 31.06 23.72 28.98 28.23 28.29 28.94 23.74 30.99 27.81 35.54 27.08 32.29 30.3 34.39 34.39 30.34 32.3 27.09 35.57 27.09 35.57"/>
      <polygon class="cls-2" points="106.17 27.09 110.67 27.82 112.75 23.72 113.45 28.23 118 28.94 113.92 30.99 114.65 35.54 111.43 32.29 107.34 34.39 109.43 30.33 106.17 27.09 106.17 27.09"/>
      <polygon class="cls-2" points="86.73 16.91 91.17 15.87 91.52 11.28 93.89 15.18 98.36 14.09 95.38 17.55 97.8 21.47 93.59 19.7 90.61 23.21 90.98 18.66 86.73 16.91 86.73 16.91"/>
      <path class="cls-1" d="M40.3,38.76l2.28,2.52c.68,.75,1.31,.88,1.82,.42,.52-.47,.48-1.09-.22-1.86l-2.28-2.52,.99-.89,2.22,2.45c1.22,1.35,1.12,2.61-.02,3.64-1.1,1-2.3,.97-3.57-.42l-2.21-2.44,.99-.9h0Z"/>
      <path class="cls-1" d="M47.79,36.12l.44-.28c.56-.36,.71-.85,.43-1.28-.29-.46-.75-.49-1.27-.17-.27,.18-.41,.3-.48,.36l.88,1.37h0Zm-2.48-1.43c.32-.29,.83-.68,1.43-1.06,.74-.47,1.32-.69,1.86-.64,.45,.05,.83,.29,1.12,.75,.4,.63,.23,1.36-.09,1.78v.02c.45-.08,.85,.13,1.27,.5,.51,.46,1.08,1.01,1.3,1.14l-1.15,.74c-.17-.09-.55-.42-1.09-.93-.53-.53-.85-.57-1.31-.28l-.34,.22,1.25,1.95-1.11,.71-3.13-4.9h0Z"/>
      <path class="cls-1" d="M52.4,30.57l2.54,5.32-1.21,.58-2.54-5.32,1.21-.58h0Zm-1.55-.3c-.15-.31-.02-.66,.29-.81,.3-.14,.64-.02,.79,.29,.14,.28,.03,.64-.27,.79-.32,.15-.67,0-.81-.27h0Z"/>
      <path class="cls-1" d="M58.09,34.62l-.76-2.29-2.86-2.71,1.44-.48,1.02,1.15c.31,.35,.52,.61,.79,.93h.02c0-.39,.03-.76,.07-1.22l.12-1.53,1.42-.47-.76,3.87,.78,2.33-1.26,.42h0Z"/>
      <polygon class="cls-1" points="65.7 30.23 63.56 30.6 63.8 31.98 66.18 31.57 66.37 32.65 62.66 33.28 61.67 27.47 65.26 26.85 65.44 27.93 63.17 28.32 63.38 29.53 65.52 29.16 65.7 30.23 65.7 30.23"/>
      <polygon class="cls-1" points="69.19 27.69 67.61 27.73 67.59 26.61 72.12 26.51 72.14 27.63 70.53 27.66 70.64 32.44 69.3 32.47 69.19 27.69 69.19 27.69"/>
      <path class="cls-1" d="M74.55,25.77c.03-.34,.33-.57,.67-.54,.33,.03,.56,.32,.52,.66-.03,.31-.31,.57-.64,.54-.35-.03-.58-.34-.55-.65h0Zm1.17,1.05l-.57,5.87-1.33-.13,.57-5.87,1.33,.13h0Z"/>
      <path class="cls-1" d="M83.3,31.87v-1.3c.01-.37,.04-.81,.06-1.17h-.02c-.18,.3-.4,.7-.59,1l-.7,1.1,1.25,.38h0Zm-1.72,.52l-.84,1.33-1.32-.4,3.44-5.12,1.67,.51,.04,6.17-1.37-.42v-1.58s-1.61-.49-1.61-.49h0Z"/>
      <path class="cls-1" d="M87.64,35.17c.09,.08,.25,.16,.4,.23,1.08,.55,2.08,.31,2.71-.94,.56-1.09,.21-1.99-.81-2.51-.26-.13-.45-.2-.56-.23l-1.74,3.45h0Zm.97-4.9c.47,.15,1.06,.4,1.67,.7,1,.5,1.56,1.01,1.87,1.65,.34,.68,.36,1.5-.11,2.43-.51,1.01-1.23,1.52-1.95,1.69-.79,.18-1.74-.03-2.77-.55-.62-.31-1.04-.57-1.31-.76l2.61-5.17h0Z"/>
      <path class="cls-1" d="M95.67,38.31l.45-1.22c.12-.34,.3-.76,.44-1.09h-.02c-.28,.22-.61,.52-.9,.74l-1.03,.8,1.05,.78h0Zm-1.8-.09l-1.24,.97-1.11-.82,4.96-3.67,1.4,1.04-2.04,5.83-1.15-.85,.53-1.49-1.36-1.01h0Z"/>
      <polygon class="cls-1" points="101.19 38.51 102.13 39.47 98.73 42.83 100.38 44.5 99.59 45.28 97 42.66 101.19 38.51 101.19 38.51"/>
      <path class="cls-1" d="M120.27,120.13h-2.54c-.49,0-.7-.66-.32-.98l.73-.63c.62-.54,1.4-.83,2.19-.83h2.54c.49,0,.71,.66,.33,.99l-.73,.63c-.62,.54-1.4,.83-2.19,.83h0Z"/>
      <path class="cls-1" d="M123.59,116.57l-2.53,.18c-.48,.03-.75-.61-.39-.96l.69-.68c.58-.58,1.33-.92,2.13-.98l2.53-.18c.48-.03,.75,.61,.39,.96l-.68,.68c-.58,.58-1.33,.92-2.13,.98h0Z"/>
      <path class="cls-1" d="M126.65,112.78l-2.52,.35c-.48,.07-.79-.55-.46-.93l.63-.72c.54-.62,1.27-1.02,2.05-1.12l2.52-.36c.48-.07,.78,.55,.46,.93l-.63,.73c-.54,.62-1.27,1.01-2.06,1.13h0Z"/>
      <path class="cls-1" d="M129.44,108.79l-2.49,.52c-.48,.11-.82-.49-.52-.89l.58-.77c.5-.65,1.19-1.1,1.97-1.27l2.48-.52c.48-.1,.82,.49,.52,.89l-.59,.77c-.49,.65-1.19,1.1-1.97,1.27h0Z"/>
      <path class="cls-1" d="M131.94,104.61l-2.44,.7c-.47,.13-.86-.44-.59-.86l.53-.81c.45-.69,1.11-1.18,1.88-1.4l2.44-.7c.47-.14,.86,.43,.59,.86l-.53,.81c-.45,.69-1.11,1.18-1.88,1.4h0Z"/>
      <path class="cls-1" d="M134.15,100.27l-2.38,.87c-.46,.17-.89-.38-.64-.81l.47-.84c.4-.72,1.03-1.26,1.78-1.53l2.38-.87c.46-.17,.89,.38,.65,.81l-.47,.84c-.4,.72-1.03,1.25-1.78,1.53h0Z"/>
      <path class="cls-1" d="M136.05,95.78l-2.32,1.04c-.44,.2-.91-.32-.7-.77l.41-.87c.35-.75,.94-1.33,1.67-1.65l2.32-1.03c.45-.2,.91,.32,.7,.77l-.41,.87c-.35,.74-.94,1.32-1.66,1.65h0Z"/>
      <path class="cls-1" d="M137.63,91.18l-2.25,1.19c-.43,.23-.93-.25-.75-.72l.35-.9c.3-.77,.84-1.39,1.55-1.76l2.24-1.19c.43-.23,.93,.25,.75,.72l-.34,.9c-.3,.77-.84,1.39-1.55,1.76h0Z"/>
      <path class="cls-1" d="M138.89,86.48l-2.15,1.35c-.41,.26-.94-.19-.8-.67l.28-.92c.25-.78,.74-1.44,1.42-1.87l2.15-1.34c.41-.26,.94,.18,.79,.66l-.28,.92c-.24,.79-.74,1.45-1.42,1.87h0Z"/>
      <path class="cls-1" d="M139.81,81.69l-2.05,1.49c-.39,.29-.95-.12-.84-.6l.22-.94c.19-.8,.64-1.49,1.29-1.96l2.05-1.49c.39-.29,.95,.12,.84,.61l-.22,.94c-.18,.8-.64,1.49-1.28,1.96h0Z"/>
      <path class="cls-1" d="M140.4,76.87l-1.94,1.63c-.38,.31-.96-.05-.88-.55l.15-.95c.13-.81,.53-1.53,1.15-2.05l1.94-1.63c.38-.31,.96,.05,.88,.54l-.15,.95c-.13,.81-.54,1.53-1.15,2.05h0Z"/>
      <path class="cls-1" d="M140.65,72l-1.83,1.76c-.35,.34-.96,.02-.92-.48l.08-.96c.07-.82,.43-1.57,1-2.12l1.82-1.76c.35-.34,.97-.02,.92,.48l-.09,.96c-.07,.82-.42,1.57-1,2.12h0Z"/>
      <path class="cls-1" d="M140.56,67.13l-1.7,1.89c-.33,.36-.96,.08-.95-.42l.02-.97c.02-.82,.32-1.59,.85-2.19l1.7-1.89c.32-.36,.96-.08,.95,.42l-.02,.96c-.02,.82-.32,1.59-.85,2.18h0Z"/>
      <path class="cls-1" d="M140.12,62.28l-1.56,2c-.3,.39-.95,.15-.98-.35l-.05-.97c-.04-.81,.21-1.61,.7-2.24l1.56-2c.3-.38,.95-.15,.98,.35l.05,.96c.04,.82-.21,1.61-.7,2.24h0Z"/>
      <path class="cls-1" d="M139.36,57.47l-1.42,2.1c-.27,.41-.94,.21-1-.28l-.11-.96c-.1-.82,.09-1.62,.54-2.28l1.42-2.1c.27-.41,.94-.22,1,.28l.12,.96c.1,.82-.09,1.62-.54,2.28h0Z"/>
      <path class="cls-1" d="M138.25,52.73l-1.27,2.19c-.24,.42-.92,.28-1.02-.21l-.18-.95c-.15-.8-.02-1.62,.38-2.31l1.27-2.19c.24-.42,.92-.28,1.01,.21l.18,.94c.15,.8,.02,1.62-.38,2.32h0Z"/>
      <path class="cls-1" d="M136.83,48.07l-1.11,2.29c-.21,.43-.9,.34-1.03-.14l-.25-.93c-.21-.79-.14-1.62,.21-2.34l1.11-2.28c.21-.44,.9-.34,1.03,.14l.25,.93c.21,.79,.13,1.62-.22,2.33h0Z"/>
      <path class="cls-1" d="M91.35,137.55l-2.24-1.19c-.43-.23-.31-.91,.18-1.02l.94-.21c.8-.18,1.62-.08,2.33,.29l2.24,1.19c.43,.23,.31,.91-.18,1.02l-.94,.21c-.8,.19-1.62,.08-2.32-.29h0Z"/>
      <path class="cls-1" d="M95.96,135.96l-2.32-1.03c-.44-.2-.38-.88,.1-1.03l.92-.28c.78-.24,1.61-.19,2.34,.13l2.32,1.03c.45,.2,.38,.89-.1,1.04l-.92,.28c-.79,.24-1.61,.19-2.34-.13h0Z"/>
      <path class="cls-1" d="M100.44,134.06l-2.39-.87c-.46-.16-.44-.85,.03-1.04l.9-.34c.77-.29,1.6-.3,2.35-.03l2.38,.86c.46,.17,.44,.86-.03,1.04l-.9,.34c-.77,.29-1.6,.3-2.34,.03h0Z"/>
      <path class="cls-1" d="M104.77,131.84l-2.44-.7c-.47-.13-.5-.83-.04-1.04l.88-.4c.75-.35,1.57-.41,2.34-.2l2.44,.7c.47,.13,.49,.83,.04,1.04l-.88,.41c-.74,.35-1.57,.41-2.34,.19h0Z"/>
      <path class="cls-1" d="M108.94,129.32l-2.48-.53c-.48-.1-.55-.79-.11-1.03l.84-.46c.72-.4,1.54-.52,2.32-.35l2.48,.53c.47,.1,.55,.79,.11,1.03l-.85,.46c-.72,.4-1.54,.52-2.32,.36h0Z"/>
      <path class="cls-1" d="M112.93,126.53l-2.52-.36c-.49-.07-.6-.75-.18-1.02l.81-.52c.69-.45,1.5-.63,2.28-.52l2.52,.35c.48,.07,.6,.75,.19,1.02l-.81,.52c-.69,.45-1.49,.63-2.28,.52h0Z"/>
      <path class="cls-1" d="M116.71,123.46l-2.53-.18c-.48-.03-.66-.7-.25-1l.77-.58c.65-.49,1.45-.73,2.24-.67l2.53,.17c.49,.03,.66,.7,.25,1.01l-.77,.58c-.65,.49-1.45,.73-2.24,.67h0Z"/>
      <polygon class="cls-2" points="97.8 120.23 95.4 124.12 98.4 127.61 93.96 126.52 91.57 130.45 91.23 125.9 86.75 124.84 90.98 123.11 90.6 118.52 93.56 122.01 97.8 120.23 97.8 120.23"/>
      <polygon class="cls-2" points="114.64 106.17 113.91 110.67 118.02 112.75 113.5 113.45 112.8 118 110.74 113.92 106.2 114.65 109.44 111.43 107.34 107.34 111.4 109.43 114.64 106.17 114.64 106.17"/>
      <polygon class="cls-2" points="124.82 86.73 125.87 91.17 130.46 91.52 126.55 93.89 127.64 98.36 124.18 95.38 120.26 97.8 122.03 93.59 118.52 90.61 123.07 90.98 124.82 86.73 124.82 86.73"/>
      <polygon class="cls-2" points="126.78 64.87 129.45 68.58 133.83 67.14 131.12 70.83 133.84 74.54 129.5 73.11 126.81 76.84 126.83 72.28 122.45 70.87 126.8 69.48 126.78 64.87 126.78 64.87"/>
      <polygon class="cls-2" points="120.23 43.93 124.12 46.33 127.61 43.33 126.52 47.77 130.45 50.16 125.9 50.5 124.84 54.98 123.11 50.75 118.52 51.13 122.01 48.18 120.23 43.93 120.23 43.93"/>
      <polygon class="cls-1" points="104.7 47.83 103.4 46.08 102.28 46.92 103.73 48.87 102.85 49.52 100.6 46.5 105.34 42.98 107.51 45.9 106.63 46.55 105.26 44.7 104.28 45.44 105.57 47.18 104.7 47.83 104.7 47.83"/>
      <polygon class="cls-1" points="108.55 49.77 107.8 48.38 108.78 47.85 110.94 51.83 109.95 52.37 109.19 50.95 104.98 53.22 104.35 52.04 108.55 49.77 108.55 49.77"/>
      <path class="cls-1" d="M111.1,58.89l.12,.42c.19,.67,.57,.96,.99,.84,.43-.12,.56-.51,.4-1.09-.08-.28-.14-.43-.19-.54l-1.32,.37h0Zm-2.52,.7c.02,.13,.06,.28,.12,.5,.16,.58,.53,1.03,1.12,.87,.57-.16,.66-.74,.48-1.38l-.12-.44-1.6,.45h0Zm4.33-2.58c.16,.32,.4,.99,.58,1.63,.22,.78,.28,1.28,.15,1.76-.1,.45-.41,.85-.92,.99-.51,.14-1.06-.02-1.48-.59h-.02c0,.7-.35,1.32-1.08,1.53-.52,.14-.98,.02-1.37-.25-.44-.32-.82-.96-1.14-2.09-.18-.63-.27-1.12-.31-1.41l5.58-1.56h0Z"/>
      <path class="cls-1" d="M111.61,66.98l1.2-.5c.34-.14,.76-.29,1.1-.42v-.02c-.36-.05-.81-.09-1.16-.14l-1.28-.21,.14,1.3h0Zm-1.16-1.38l-1.55-.25-.15-1.37,6.06,1.15,.19,1.74-5.66,2.46-.16-1.43,1.45-.62-.19-1.68h0Z"/>
      <path class="cls-1" d="M115.22,71.22l-.08,1.32-2.6-.15v.03c.22,.14,.42,.3,.62,.44l1.88,1.45-.09,1.63-2.4-2.09-3.5,1.86,.09-1.56,2.62-1.3-.59-.54-1.92-.11,.07-1.32,5.89,.33h0Z"/>
      <path class="cls-1" d="M110.59,80.68l1.3-.08c.36-.02,.81-.03,1.17-.03v-.02c-.32-.16-.73-.35-1.04-.52l-1.14-.62-.29,1.27h0Zm-.64-1.68l-1.38-.75,.31-1.35,5.34,3.09-.39,1.71-6.16,.45,.32-1.4,1.58-.1,.38-1.65h0Z"/>
      <path class="cls-1" d="M107.18,83.61l5.44,2.3-.61,1.44-2.47,.29c-.71,.08-1.52,.12-2.24,.1v.03c.74,.22,1.48,.51,2.3,.85l1.59,.67-.48,1.13-5.43-2.3,.54-1.29,2.59-.28c.72-.08,1.57-.14,2.32-.13v-.03c-.73-.27-1.5-.58-2.39-.95l-1.64-.69,.48-1.13h0Z"/>
      <polygon class="cls-1" points="109.28 93.02 108.57 94.15 104.52 91.61 103.28 93.6 102.33 93 104.28 89.88 109.28 93.02 109.28 93.02"/>
      <polygon class="cls-1" points="105.1 99.01 100.49 95.34 101.32 94.29 105.93 97.97 105.1 99.01 105.1 99.01"/>
      <path class="cls-1" d="M102.69,103.76c-.15-.12-.39-.18-.65,.07-.27,.26-.23,.49-.12,.67l-.49,.47c-.43-.47-.48-1.07,.12-1.64,.63-.6,1.2-.51,1.65-.05l-.5,.49h0Zm-6.86-3.25c.2-.39,.63-1.06,1.19-1.6,.78-.75,1.53-1.09,2.28-1.08,.74,0,1.49,.34,2.08,.97,1.35,1.42,1.1,3.22-.3,4.56-.55,.53-1.08,.83-1.38,.92l-.53-.96c.33-.12,.7-.32,1.17-.77,.8-.77,.97-1.8,.09-2.73-.84-.88-1.89-.87-2.68-.11-.22,.21-.37,.41-.41,.52l.85,.89,.66-.63,.72,.75-1.59,1.52-2.15-2.24h0Z"/>
      <polygon class="cls-1" points="96.42 107.06 92.95 102.3 94.03 101.51 97.5 106.28 96.42 107.06 96.42 107.06"/>
      <path class="cls-1" d="M70.88,110.95c-.94,0-1.71,.76-1.71,1.71,0,.94,.76,1.7,1.71,1.7,.94,0,1.7-.76,1.7-1.71,0-.94-.76-1.71-1.71-1.7h0Z"/>
      <path class="cls-3" d="M66.34,40.96c-1.07,.49-1.96,1.28-2.56,2.26-.57,.91-.89,1.98-.89,3.12,0,1.77,.78,3.36,2.01,4.45,1.05,.92,2.42,1.48,3.92,1.48,.1,0,.2,0,.3-.01,.93-.04,1.8-.3,2.57-.73,.87-.48,1.61-1.18,2.14-2.02-.68,.76-1.59,1.29-2.62,1.49-.29,.06-.6,.09-.91,.09h0c-1.55,0-2.93-.75-3.79-1.9-.6-.79-.95-1.78-.95-2.84,0-.41,.05-.8,.15-1.18,.3-1.16,1.03-2.15,2-2.78,.2-.13,.41-.25,.63-.35,.6-.27,1.26-.42,1.97-.42,1.4,0,2.66,.61,3.53,1.57-1.05-1.66-2.9-2.76-5.01-2.76-.61,0-1.21,.09-1.77,.27-.25,.08-.48,.16-.7,.27h0Z"/>
      <polygon class="cls-3" points="73.5 46.34 75.55 47.01 75.55 49.17 76.81 47.42 78.86 48.09 77.93 46.8 77.59 46.34 78.86 44.61 76.81 45.27 76.09 44.28 75.55 43.53 75.55 45.68 73.5 46.34 73.5 46.34"/>
      <path class="cls-3" d="M70.55,57.53l-.86,4.86v22.58s-1.22,0-1.22,0v.78h1.08c0,4.88-.43,5.34,2.55,5.34v-.67h-.62v-4.67s1.15,0,1.15,0v-.79h-1.22l-.05-22.59-.8-4.85h0Z"/>
      <path class="cls-3" d="M57.7,82.58c2.96,0,5.5-1.83,6.55-4.41h-13.1c1.05,2.59,3.59,4.41,6.55,4.41h0Z"/>
      <path class="cls-3" d="M57.69,59.65l4.32,18.21h.76l-4.6-19.4c-.07,.02-.14,.04-.21,.05-.09,.02-.18,.02-.27,.02-.17,0-.33-.03-.48-.07l-4.59,19.4h.76l4.31-18.21h0Z"/>
      <path class="cls-3" d="M57.69,58.34c.87,0,1.57-.71,1.57-1.58,0-.87-.71-1.57-1.57-1.57-.87,0-1.58,.71-1.58,1.58,0,.87,.71,1.57,1.58,1.57h0Zm0-2.26h0c.38,0,.68,.3,.68,.68,0,.38-.3,.68-.68,.68-.38,0-.68-.31-.68-.68s.31-.68,.68-.68h0Z"/>
      <path class="cls-3" d="M70.42,57.53h11.34c-.22-.23-.28-.53-.28-.76,0-.24,.06-.54,.28-.76h-10.8s-.78,0-.78,0h-10.88c.22,.23,.27,.49,.27,.76s-.05,.54-.27,.76h11.12Z"/>
      <path class="cls-3" d="M83.38,58.34c.87,0,1.57-.71,1.57-1.58,0-.87-.71-1.57-1.58-1.57-.87,0-1.57,.71-1.57,1.58,0,.87,.71,1.57,1.58,1.57h0Zm0-2.26h0c.38,0,.68,.3,.68,.68s-.3,.68-.68,.68-.68-.31-.68-.68,.3-.68,.68-.68h0Z"/>
      <path class="cls-3" d="M83.39,82.57c2.96,0,5.5-1.83,6.55-4.41h-13.1c1.05,2.59,3.59,4.41,6.55,4.41h0Z"/>
      <path class="cls-3" d="M83.38,58.53c-.09,0-.18,0-.27-.02-.07-.01-.14-.03-.21-.05l-4.6,19.4h.76s4.31-18.21,4.31-18.21l4.32,18.21h.76s-4.6-19.4-4.6-19.4c-.15,.05-.31,.07-.48,.07h0Z"/>
      <path class="cls-3" d="M45.28,92.56l3.24,1.72c8.08-2.53,16.6-3.01,22.39,4.45v-2.54c-5.2-5.45-14.07-8.24-25.62-3.62h0Z"/>
      <path class="cls-3" d="M49.16,89.14l-2.19-1.3c8.22-2.11,18.35-.55,24.01,7.07-6.27-6.24-14.56-6.81-21.82-5.76h0Z"/>
      <path class="cls-3" d="M48.35,84c6.44-.49,13.79,.06,20.46,7.19-3.86-3.05-8.16-6.15-17.84-5.67l-2.62-1.52h0Z"/>
      <path class="cls-3" d="M96.46,92.55l-3.23,1.72c-8.08-2.53-16.6-3.01-22.38,4.45v-2.54c5.2-5.45,14.06-8.24,25.62-3.63h0Z"/>
      <path class="cls-3" d="M92.58,89.14l2.19-1.3c-8.22-2.11-18.35-.54-24,7.07,6.26-6.24,14.55-6.82,21.81-5.77h0Z"/>
      <path class="cls-3" d="M93.38,84c-6.44-.49-13.79,.06-20.46,7.19,3.86-3.05,8.16-6.15,17.84-5.67l2.62-1.52h0Z"/>
    </g>
  </g>
</svg>