<svg width="24" height="24" viewBox="0 0 512 512" fill="#667085">
  <path
    fill-rule="evenodd"
    clip-rule="evenodd"
    d="M256 40C136.706 40 40 136.706 40 256C40 375.294 136.706 472 256 472C375.294 472 472 375.294 472 256C472 136.706 375.294 40 256 40ZM24 256C24 127.87 127.87 24 256 24C384.13 24 488 127.87 488 256C488 384.13 384.13 488 256 488C127.87 488 24 384.13 24 256ZM163.346 115.839C189.909 98.2455 221.77 88 256 88C348.784 88 424 163.216 424 256C424 290.23 413.754 322.091 396.161 348.654C394.835 350.656 392.681 351.956 390.292 352.196C387.903 352.437 385.532 351.591 383.834 349.893L162.107 128.166C160.409 126.468 159.563 124.097 159.804 121.708C160.044 119.319 161.344 117.165 163.346 115.839ZM180.572 124.004L387.996 331.428C400.724 309.205 408 283.462 408 256C408 172.053 339.947 104 256 104C228.538 104 202.795 111.276 180.572 124.004ZM121.708 159.804C124.097 159.563 126.468 160.409 128.166 162.107L349.893 383.834C351.591 385.532 352.437 387.903 352.196 390.292C351.956 392.681 350.656 394.835 348.654 396.161C322.091 413.754 290.23 424 256 424C163.216 424 88 348.784 88 256C88 221.77 98.2455 189.909 115.839 163.346C117.165 161.344 119.319 160.044 121.708 159.804ZM124.004 180.572C111.276 202.795 104 228.538 104 256C104 339.947 172.053 408 256 408C283.462 408 309.205 400.724 331.428 387.996L124.004 180.572Z"
  />
</svg>
