<svg width="38" height="38" viewBox="0 0 38 38" fill="#0ba5ec">
  <path
    fill-rule="evenodd"
    clip-rule="evenodd"
    d="M5.85547 18.9998C5.85547 11.7396 11.7411 5.854 19.0013 5.854C26.2615 5.854 32.1471 11.7396 32.1471 18.9998C32.1471 26.2601 26.2615 32.1457 19.0013 32.1457C11.7411 32.1457 5.85547 26.2601 5.85547 18.9998ZM19.0013 2.854C10.0842 2.854 2.85547 10.0827 2.85547 18.9998C2.85547 27.9169 10.0842 35.1457 19.0013 35.1457C27.9184 35.1457 35.1471 27.9169 35.1471 18.9998C35.1471 10.0827 27.9184 2.854 19.0013 2.854ZM16.9999 11.9145C16.9999 13.0191 17.8953 13.9145 18.9999 13.9145H19.0015C20.106 13.9145 21.0015 13.0191 21.0015 11.9145C21.0015 10.81 20.106 9.91454 19.0015 9.91454H18.9999C17.8953 9.91454 16.9999 10.81 16.9999 11.9145ZM19.0014 27.8171C18.173 27.8171 17.5014 27.1455 17.5014 26.3171V17.3293C17.5014 16.5008 18.173 15.8293 19.0014 15.8293C19.8299 15.8293 20.5014 16.5008 20.5014 17.3293L20.5014 26.3171C20.5014 27.1455 19.8299 27.8171 19.0014 27.8171Z"
    fill=""
  ></path>
</svg>
