<?xml version="1.0" standalone="no"?>
<!DOCTYPE svg PUBLIC "-//W3C//DTD SVG 20010904//EN"
 "http://www.w3.org/TR/2001/REC-SVG-20010904/DTD/svg10.dtd">
<svg version="1.0" xmlns="http://www.w3.org/2000/svg"
 width="200.000000pt" height="200.000000pt" viewBox="0 0 200.000000 200.000000"
 preserveAspectRatio="xMidYMid meet">

<g transform="translate(0.000000,200.000000) scale(0.100000,-0.100000)"
fill="#000000" stroke="none">
<path d="M0 1000 l0 -1000 1000 0 1000 0 0 1000 0 1000 -1000 0 -1000 0 0
-1000z m720 275 l0 -45 -90 0 -90 0 0 -245 0 -245 -50 0 -50 0 0 245 0 245
-90 0 -90 0 0 45 0 45 230 0 230 0 0 -45z m210 -200 l0 -245 120 0 120 0 0
-45 0 -45 -172 2 -173 3 -3 288 -2 287 55 0 55 0 0 -245z m678 222 c51 -28 74
-72 69 -132 -4 -43 -10 -54 -45 -85 l-41 -36 34 -13 c53 -19 75 -54 75 -120 0
-73 -24 -111 -86 -142 -42 -20 -67 -23 -191 -27 l-143 -5 0 293 0 292 148 -4
c117 -3 154 -7 180 -21z"/>
<path d="M1382 1158 l3 -73 35 1 c19 1 52 2 73 3 73 2 113 76 65 121 -18 17
-35 20 -100 20 l-79 0 3 -72z"/>
<path d="M1380 915 l0 -85 69 0 c105 0 151 25 151 81 0 66 -41 89 -157 89
l-63 0 0 -85z"/>
</g>
</svg>
