<?xml version="1.0" encoding="utf-8"?>
<!-- Generator: Adobe Illustrator 25.0.1, SVG Export Plug-In . SVG Version: 6.00 Build 0)  -->
<svg version="1.0" id="Layer_1" xmlns="http://www.w3.org/2000/svg" xmlns:xlink="http://www.w3.org/1999/xlink" x="0px" y="0px"
	 viewBox="0 0 1062.2 802.6" style="enable-background:new 0 0 1062.2 802.6;" xml:space="preserve">
<style type="text/css">
	.st0{fill:#1F3A10;}
	.st1{fill:none;stroke:#E6CF00;stroke-width:1.78;stroke-miterlimit:3.86;}
	.st2{fill:#E6CF00;}
	.st3{fill:none;stroke:#E6CF00;stroke-width:0.84;stroke-miterlimit:3.86;}
	.st4{fill:#F00000;}
	.st5{fill:none;stroke:#E6CF00;stroke-width:0.45;stroke-miterlimit:3.86;}
	.st6{fill:none;stroke:#E6CF00;stroke-width:0.84;stroke-linecap:round;stroke-linejoin:round;}
	.st7{fill:none;stroke:#E6CF00;stroke-width:9.000000e-02;stroke-miterlimit:3.86;}
	.st8{fill:none;stroke:#E6CF00;stroke-width:0.28;stroke-miterlimit:3.86;}
	.st9{fill:none;stroke:#E6CF00;stroke-width:8.000000e-02;stroke-miterlimit:3.86;}
</style>
<path class="st0" d="M197.3,401.3c0-184.4,149.4-333.8,333.8-333.8s333.8,149.4,333.8,333.8S715.5,735.1,531.1,735.1
	S197.3,585.6,197.3,401.3"/>
<path class="st1" d="M197.3,401.3c0-184.4,149.4-333.8,333.8-333.8s333.8,149.4,333.8,333.8S715.5,735.1,531.1,735.1
	S197.3,585.6,197.3,401.3z"/>
<polygon class="st2" points="241.1,285 271.7,283.1 253.5,257.9 263.3,236.4 292.7,282.1 317.4,293.3 308.8,312.1 283.3,300.4 
	231,307 "/>
<path class="st2" d="M320.3,202.1l13.8,23.3l10.4-10.9L320.3,202.1z M333,262.6l-36-67.8l15.5-16.2l69.5,32.6l-14.8,15.5l-8.8-4.6
	L342,239.3l5,8.5L333,262.6z"/>
<path class="st2" d="M412.9,138.3c-0.9-2.2-2.8-3.9-5.1-4.4c-2.3-0.5-4.7-0.1-6.8,1l-8.1,3.9l7.6,15.7l5.5-2.7
	c1.3-0.6,2.5-1.3,3.7-2.1c1.2-0.8,2.2-1.7,3-2.8c0.8-1.1,1.3-2.4,1.4-3.7C414.1,141.5,413.7,139.8,412.9,138.3 M406.1,165.9l12,24.7
	l-18.5,9l-31.8-65.6l34-16.5c2.9-1.5,6.1-2.3,9.3-2.5c2.9-0.2,5.8,0.2,8.5,1.2c2.6,1,5,2.4,7.1,4.4c4.7,4.5,7.5,10.7,7.9,17.2
	c0,2.5-0.4,5-1.2,7.4c-0.9,2.2-2.4,4.2-4.1,5.9l28.1,20.6l-20.8,10l-23.4-19.1L406.1,165.9z"/>
<path class="st2" d="M533.6,161.8l-1-4.3c-2.7,2.1-5.7,3.9-8.8,5.2c-3.3,1.4-6.8,2.3-10.3,2.6c-5.3,0.5-10.7-0.1-15.8-1.7
	c-9.4-2.9-17.3-9.6-21.5-18.5c-2.3-4.7-3.7-9.9-4-15.1c-0.4-5.2,0.2-10.3,1.7-15.3c3-9.5,9.8-17.4,18.7-21.9
	c4.7-2.4,9.9-3.8,15.1-4.1c5.9-0.5,11.9,0.3,17.4,2.5c5.1,2,9.8,5.2,13.5,9.3l-15.3,13.9c-1.7-2-3.8-3.6-6.3-4.6
	c-2.5-1-5.1-1.4-7.7-1.2c-2.4,0.2-4.7,0.8-6.9,1.9c-4.2,2.1-7.3,5.9-8.7,10.4c-0.8,2.4-1,5-0.8,7.6c0.2,2.4,0.8,4.7,1.9,6.8
	c1.1,2.1,2.5,3.9,4.2,5.5c3.5,3.2,8.2,4.7,12.9,4.4c1.7-0.1,3.4-0.4,5.1-0.9c1.6-0.5,3.2-1.1,4.8-1.8c1.4-0.7,2.8-1.6,4-2.6
	c1.1-0.9,2.1-2,2.8-3.2l-12.5,0.9l-1.1-14.6l31.4-2.3l3,40.1L533.6,161.8z"/>
<rect x="556.2" y="123.1" transform="matrix(0.226 -0.9741 0.9741 0.226 328.7635 680.4748)" class="st2" width="72.9" height="20.5"/>
<polygon class="st2" points="644,126.7 651.8,112.6 708.7,143.7 701,157.8 681.5,147.2 654.3,197 636.2,187.1 663.5,137.3 "/>
<path class="st2" d="M741.5,202.9l-24,12.5l10.3,11L741.5,202.9z M680.4,212.2l69.8-32.1l15.3,16.4L729,264l-14.7-15.6l5.1-8.5
	l-16.3-17.4l-8.8,4.5L680.4,212.2z"/>
<polygon class="st2" points="809.4,261.6 790.6,285.8 821.5,288.8 831.1,310.4 777.5,302.3 752.7,313.3 744.3,294.5 769.9,283 
	799.6,239.6 "/>
<path class="st3" d="M308.5,401.3c0-122.9,99.6-222.6,222.6-222.6s222.6,99.6,222.6,222.6S654,623.9,531.1,623.9
	S308.5,524.2,308.5,401.3z"/>
<path class="st4" d="M318.1,401.3c0-117.7,95.4-213,213-213s213,95.4,213,213s-95.3,213-213,213S318.1,519,318.1,401.3"/>
<path class="st5" d="M318.1,401.3c0-117.7,95.4-213,213-213s213,95.4,213,213s-95.3,213-213,213S318.1,519,318.1,401.3z"/>
<path class="st2" d="M264.4,330.5c0,0-12.5,23.4-12.5,39.6s6.5,26.2,6.5,31s-1.9,2.9-5.1-1.2s-12.6-18.1-14.6-18.1
	s-2.9,6.3-0.2,14.7c2.7,8.5,8.5,21.3,11.7,25.6s10.7,14.7,10.7,14.7l-0.2,6.9c0,0-10.6-13.5-17.2-16.1c-7.4-3-11.6-7-13.9-7.4
	c-2.7-0.5-2.4,3.6-1.7,6.1s3.6,8,5.4,12.3c1.8,4.3,3.8,8.2,16.8,18s17.6,20.7,17.8,26.4s-2.5,6.5-4.7,5.2
	c-2.3-1.4-13.1-12.6-18.1-14.8c-6.7-2.9-12.1-9.2-13.3-8.1c-1.2,1.1,0.7,10.9,5.4,16.4c6.1,7,12.9,13.4,20.4,19
	c8.8,6.4,16.3,9.2,22.7,17.5c6.3,8.2,11.3,13.9,10.8,16.8c-0.5,2.9-21.8-4.2-29.2-8.4c-7.4-4.2-12.3-8-12.7-6.9
	c-0.3,0.8,1.5,7.9,9.9,16.2c4,3.9,5.8,8,16.7,11.8c27.5,9.8,21,8.1,31.5,13.5s14.1,12.3,14.1,15s-12.6,2.7-20.6,0
	s-19.8-6.9-23.2-6.7c-3.4,0.2-0.7,4.8,7,12.3s13.2,10.6,28,12.8s26.4,2.7,31.6,6.1s15.3,13.7,15.3,14.8s-4.8,4.2-25.4,2.2
	c-19-1.8-20.9-0.5-20.6,1.4c0.2,1.8,12.1,11.6,27.1,13.9c8.7,1.3,29.6,2,38.7,4.3c9.1,2.3,14.8,9,15.2,10.2
	c0.5,1.2-7.8,4.3-19.7,3.6c-5.1-0.3-10.6,1.8-15,2.9c-5.2,1.2-8.8,0.2-9,1.5c-0.3,1.6,5.9,9.5,31.5,10.9c24.9,1.3,18.5-1.5,31.1-2
	s14.7-1.1,22.4,4.8s29.3,25.7,31.2,32c1.2,4.4,1.8,8.9,1.8,13.4c0,0-1.6,4,1.4,4.4s7.9,0.3,10.6-5.5c2.2-4.5,6.3-7.9,11.2-9.2
	c2.5-0.5,4.2-4.4-0.5-7.9s-19.8-16.9-28.2-21.3s-16.4-6-18.8-9.8s0.3-17.8-15.1-28.8s-20.3-19.2-24-23.3s-4.4-5.5-6.2-4.8
	c-1.8,0.7,1.4,10,1.6,13.7s2.3,12.3,2.3,15.2s-3.6,2.5-6.6,0.7s-1.6-12.5-3.1-17s-6.6-13.9-11.8-18.2s-13.1-13.9-16.5-18.8
	c-3.4-5-6.4-9-7.5-8.3s1.7,7.8,2.7,12.9s2.3,14.3-0.8,14.3s-4.3-1.2-9-15.4s-12.1-23.1-15.2-29.4s-9.9-21.1-12-22.7
	s-3.3,1.7-2.7,10.4c0.7,8.7,3.2,8.9,3.3,12.1c0.2,4.3-0.6,7-4.5,5.4c-6-3.2-9.8-7.1-8-19.3c1.8-12.2,0.2-25.8-4.3-33
	c-4.5-7.2-5-13.9-7.7-17.9c-2.7-4.1-2.4-7.9-4.2-7.9c-1.8,0-3.6,8.7-3.6,13.8s-2.5,11.2-5.2,11.2c-2.7,0-9.6-4.9-6.6-12.8
	s8-4.5,7.3-29.8s2.7-34.3,0-34.3s-6.1,7.6-7.4,11.6c-1.4,4.1-3.3,15.9-7.1,16.1c-3.9,0.3-9.9-2.3-8.4-13.4
	c1.6-11.2,6.9-22.6,11.4-27.6c4.5-5.1,6.8-14.9,7.2-22.7c0.4-7.8,1.1-12.1,0.9-13s-2.2,0-4.7,3.8s-6.2,14.5-9.8,14.8s-1.6-6,0-13.4
	c1.6-7.4,4.1-26.4,1.8-32.6C268.4,349.9,264.4,330.5,264.4,330.5"/>
<path class="st2" d="M797.8,330.5c0,0,12.5,23.4,12.5,39.6s-6.5,26.2-6.5,31s1.8,2.9,5.1-1.2s12.6-18.1,14.6-18.1s2.9,6.3,0.2,14.7
	s-8.5,21.3-11.7,25.6s-10.7,14.7-10.7,14.7l0.2,6.9c0,0,10.6-13.5,17.3-16.1c7.4-3,11.6-7,13.9-7.4c2.7-0.5,2.4,3.6,1.7,6.1
	s-3.6,8-5.4,12.3s-3.8,8.2-16.8,18s-17.6,20.7-17.8,26.4s2.5,6.5,4.7,5.2s13.1-12.6,18.1-14.8c6.7-2.9,12.1-9.2,13.3-8.1
	s-0.7,10.9-5.4,16.4c-6.1,7-12.9,13.4-20.4,19c-8.8,6.4-16.3,9.2-22.7,17.5c-6.3,8.2-11.3,13.9-10.8,16.8s21.8-4.2,29.2-8.4
	c7.4-4.2,12.3-8,12.7-6.9c0.3,0.8-1.5,7.9-9.9,16.2c-4,3.9-5.8,8-16.7,11.8c-27.5,9.8-21,8.1-31.5,13.5s-14.1,12.3-14.1,15
	s12.6,2.7,20.6,0s19.8-6.9,23.2-6.7s0.7,4.8-7,12.3s-13.2,10.6-28,12.8s-26.4,2.7-31.6,6.1s-15.2,13.7-15.2,14.8s4.8,4.2,25.4,2.2
	c19-1.8,20.9-0.5,20.6,1.4s-12.1,11.6-27.1,13.9c-8.7,1.3-29.5,2-38.7,4.3s-14.8,9-15.2,10.2c-0.4,1.2,7.8,4.3,19.7,3.6
	c5.2-0.3,10.6,1.8,15,2.9c5.2,1.2,8.8,0.2,9,1.5c0.3,1.6-5.8,9.5-31.5,10.9c-24.9,1.3-18.5-1.5-31.2-2s-14.7-1.1-22.4,4.8
	c-7.7,6-29.3,25.7-31.2,32c-1.2,4.3-1.8,8.8-1.9,13.3c0,0,1.6,4-1.3,4.4s-7.9,0.3-10.6-5.5c-2.2-4.5-6.3-7.9-11.2-9.2
	c-2.5-0.5-4.2-4.4,0.5-7.9c4.6-3.5,19.8-16.9,28.2-21.3c8.3-4.4,16.3-6,18.8-9.8s-0.3-17.8,15.1-28.8c15.5-10.9,20.3-19.2,24-23.3
	s4.4-5.5,6.2-4.8s-1.3,10-1.6,13.7s-2.2,12.3-2.2,15.2s3.6,2.5,6.5,0.7s1.6-12.5,3.2-17s6.7-13.9,11.8-18.2s13.1-13.9,16.5-18.8
	s6.4-9,7.5-8.3s-1.7,7.8-2.7,12.9s-2.2,14.3,0.9,14.3s4.3-1.2,9-15.4s12.1-23.1,15.2-29.4s9.9-21.1,12-22.7s3.3,1.7,2.7,10.4
	c-0.7,8.7-3.2,8.9-3.3,12.1c-0.2,4.3,0.6,7,4.5,5.4c6-3.2,9.8-7.1,8-19.3s-0.2-25.8,4.3-33c4.5-7.2,5-13.9,7.7-17.9s2.3-7.9,4.2-7.9
	s3.6,8.7,3.6,13.8s2.5,11.2,5.2,11.2s9.6-4.9,6.7-12.8s-8-4.5-7.3-29.8s-2.7-34.3,0-34.3s6.1,7.6,7.4,11.6s3.3,15.9,7.1,16.1
	s9.9-2.3,8.3-13.4s-6.9-22.6-11.4-27.7s-6.8-14.9-7.2-22.7s-1.1-12.1-0.9-13s2.3,0,4.7,3.8s6.2,14.5,9.8,14.8s1.6-6,0-13.4
	s-4.1-26.4-1.8-32.6S797.8,330.5,797.8,330.5"/>
<line class="st6" x1="369.2" y1="506.3" x2="693.6" y2="506.3"/>
<path class="st2" d="M379.3,495.5h303.5c0,0-32.3-22.2-72.7-22.2c-40.4,0-78.1,20.2-78.1,20.2s-40.4-20.9-81.4-20.9
	S379.3,495.5,379.3,495.5"/>
<path class="st7" d="M379.3,495.5h303.5c0,0-32.3-22.2-72.7-22.2c-40.4,0-78.1,20.2-78.1,20.2s-40.4-20.9-81.4-20.9
	S379.3,495.5,379.3,495.5z"/>
<path class="st2" d="M515.4,302.9H407.7l40,143.1c0,0-10.7,19.5-41,19.5c-26.2,0-40.4-19.5-40.4-19.5l40.7-143.5L523.9,282
	L515.4,302.9z M405.8,445.7l0.8-138.6l-37,138.6L405.8,445.7z M407.9,445.7h37l-37-138.6V445.7z"/>
<path class="st8" d="M515.4,302.9H407.7l40,143.1c0,0-10.7,19.5-41,19.5c-26.2,0-40.4-19.5-40.4-19.5l40.7-143.5L523.9,282
	L515.4,302.9z M405.8,445.7l0.8-138.6l-37,138.6L405.8,445.7z M407.9,445.7h37l-37-138.6V445.7z"/>
<path class="st2" d="M546.7,302.9h107.7l-40,143.1c0,0,10.7,19.5,41,19.5c26.2,0,40.3-19.5,40.3-19.5l-40.7-143.5L538.3,282
	L546.7,302.9z M656.4,445.7l-0.8-138.6l37,138.6L656.4,445.7z M654.3,445.7h-37l37-138.6V445.7z"/>
<path class="st8" d="M546.7,302.9h107.7l-40,143.1c0,0,10.7,19.5,41,19.5c26.2,0,40.3-19.5,40.3-19.5l-40.7-143.5L538.3,282
	L546.7,302.9z M656.4,445.7l-0.8-138.6l37,138.6L656.4,445.7z M654.3,445.7h-37l37-138.6V445.7z"/>
<path class="st2" d="M531.1,278l-11.9,29l-0.8,210.7c0,0-12.1,6.1-18.8,2s-10.1-8.8-13.5-4.7c-3.4,4,0.7,10.1,16.2,11.4
	c15.5,1.4,18.8,2,18.8,4.7c0,2.7,0,25.6-0.7,31.6c-0.7,6-4.1,11.5-8.8,15.5c-4.7,4-4.7,14.1,10.1,14.1c14.8,0,14-13.5,14-30.3v-31.6
	c0,0-0.7-5,8.2-2.6c9.9,2.8,20.2,6.6,22.2,1.2c2-5.4-8.1-8.1-18.2-8.1s-7.7-1-7.7-1l2.5-213.1L531.1,278z"/>
<path class="st9" d="M531.1,278l-11.9,29l-0.8,210.7c0,0-12.1,6.1-18.8,2s-10.1-8.8-13.5-4.7c-3.4,4,0.7,10.1,16.2,11.4
	c15.5,1.4,18.8,2,18.8,4.7c0,2.7,0,25.6-0.7,31.6c-0.7,6-4.1,11.5-8.8,15.5c-4.7,4-4.7,14.1,10.1,14.1c14.8,0,14-13.5,14-30.3v-31.6
	c0,0-0.7-5,8.2-2.6c9.9,2.8,20.2,6.6,22.2,1.2c2-5.4-8.1-8.1-18.2-8.1s-7.7-1-7.7-1l2.5-213.1L531.1,278z"/>
<path class="st2" d="M531.1,276.8c-15.3,0-27.7-12.4-27.7-27.8c0-9.5,4.9-18.4,12.9-23.5c-9.1,8.2-9.9,22.2-1.7,31.3
	c8.2,9.1,22.2,9.9,31.3,1.7c9.1-8.2,9.9-22.2,1.7-31.3c-0.5-0.6-1.1-1.2-1.7-1.7c13,8.2,16.8,25.3,8.6,38.3
	C549.5,271.9,540.6,276.8,531.1,276.8"/>
<polygon class="st2" points="522.9,200.5 526.1,210.1 517.9,216 528,216 531.1,225.6 534.2,216 544.3,216 536.1,210.1 539.2,200.5 
	531.1,206.4 "/>
<path class="st2" d="M476.9,677.2v-27.1h-10.5v-6.4c1.4,0,2.9-0.1,4.3-0.3c1.3-0.2,2.6-0.7,3.7-1.4c2.4-1.4,4-3.9,4.3-6.6h6.8v41.9
	H476.9z"/>
<path class="st2" d="M508,650.8c1.3,0.9,2.9,1.4,4.5,1.4c1.6,0.1,3.2-0.4,4.5-1.4c1.2-1,1.9-2.5,1.8-4.1c0-0.6-0.1-1.2-0.2-1.8
	c-0.2-0.7-0.5-1.3-0.9-1.9c-0.5-0.6-1.2-1.1-1.9-1.5c-1-0.4-2.1-0.6-3.2-0.6c-0.8,0-1.6,0.1-2.4,0.4c-0.7,0.2-1.4,0.6-2.1,1.1
	c-0.6,0.5-1.1,1.1-1.4,1.8c-0.4,0.8-0.5,1.6-0.5,2.5C506,648.3,506.7,649.9,508,650.8 M505.7,667.4c0.4,0.8,0.9,1.6,1.6,2.2
	c0.7,0.6,1.5,1.1,2.4,1.4c0.9,0.3,1.9,0.5,2.9,0.5c1,0,1.9-0.2,2.8-0.5c0.8-0.3,1.6-0.8,2.3-1.4c0.7-0.6,1.2-1.4,1.5-2.2
	c0.4-0.9,0.5-1.9,0.5-2.9c0-0.9-0.2-1.9-0.6-2.7c-0.8-1.6-2.1-2.9-3.8-3.5c-0.9-0.3-1.8-0.5-2.8-0.5c-1.9-0.1-3.8,0.5-5.3,1.7
	c-1.5,1.2-2.3,3-2.2,4.9C505.1,665.5,505.3,666.5,505.7,667.4 M499.6,641c0.8-1.4,1.9-2.6,3.3-3.6c1.4-1,2.9-1.7,4.5-2.2
	c1.7-0.5,3.4-0.7,5.1-0.7c2.3-0.1,4.5,0.3,6.6,1.2c1.6,0.7,3.1,1.7,4.3,2.9c1,1,1.8,2.3,2.4,3.7c0.4,1.1,0.7,2.3,0.7,3.5
	c0,1.9-0.5,3.8-1.5,5.4c-1.1,1.6-2.7,2.8-4.6,3.3v0.1c2.3,0.4,4.4,1.7,5.8,3.6c1.4,1.9,2.1,4.3,2,6.7c0.1,2-0.4,4-1.3,5.8
	c-0.9,1.6-2.1,3-3.6,4.1c-1.5,1.1-3.2,1.9-5,2.4c-1.9,0.5-3.8,0.8-5.7,0.8c-2,0-4-0.3-5.9-0.8c-1.8-0.5-3.5-1.3-5.1-2.4
	c-3.2-2.3-5.1-6-4.9-9.9c-0.1-2.4,0.6-4.8,2.1-6.7c1.5-1.8,3.5-3.1,5.8-3.6v-0.1c-1.9-0.4-3.5-1.6-4.6-3.2c-1.1-1.6-1.6-3.5-1.5-5.4
	C498.3,644.2,498.7,642.5,499.6,641"/>
<path class="st2" d="M543.7,656.1c-0.8,0.4-1.6,1-2.1,1.7c-0.6,0.7-1,1.6-1.3,2.5c-0.3,1-0.4,2-0.4,3c0,1,0.2,1.9,0.4,2.8
	c0.3,0.9,0.7,1.8,1.3,2.5c0.6,0.7,1.3,1.3,2.1,1.8c0.9,0.5,1.9,0.7,2.9,0.7c1,0,1.9-0.2,2.7-0.7c0.8-0.4,1.5-1,2-1.7
	c0.6-0.7,1-1.6,1.2-2.5c0.3-0.9,0.4-1.9,0.4-2.8c0-1-0.1-2-0.4-2.9c-0.2-0.9-0.6-1.7-1.2-2.5c-0.5-0.7-1.2-1.4-2-1.8
	c-0.9-0.5-1.8-0.7-2.8-0.7C545.7,655.5,544.6,655.7,543.7,656.1 M550.8,642.5c-1-1-2.3-1.6-3.7-1.5c-1.4-0.1-2.7,0.4-3.8,1.3
	c-1,0.9-1.9,2-2.4,3.3c-0.6,1.3-1,2.7-1.3,4.2c-0.3,1.3-0.4,2.7-0.5,4l0.1,0.1c1-1.5,2.4-2.8,4.1-3.6c3.4-1.5,7.3-1.4,10.6,0.1
	c1.7,0.7,3.1,1.8,4.4,3.1c1.1,1.3,1.9,2.8,2.5,4.4c0.5,1.6,0.8,3.3,0.8,5c0,2-0.3,4.1-1,6c-0.7,1.8-1.7,3.4-3,4.8
	c-1.3,1.4-2.9,2.5-4.6,3.2c-4.5,1.8-9.5,1.5-13.8-0.7c-2-1.2-3.8-2.9-5-4.9c-1.3-2.1-2.1-4.5-2.6-6.9c-0.5-2.6-0.7-5.2-0.7-7.9
	c0-2.6,0.3-5.2,0.9-7.8c0.6-2.5,1.5-4.8,2.9-7c1.3-2.1,3-3.8,5.1-5.1c2.3-1.4,4.9-2.1,7.6-2c1.7,0,3.4,0.3,5,0.8
	c1.5,0.5,2.9,1.3,4.1,2.2c1.2,1,2.2,2.2,2.9,3.6c0.8,1.6,1.3,3.3,1.5,5h-8c-0.3-1.4-0.9-2.6-1.9-3.6"/>
<path class="st2" d="M575.6,650.8c1.3,0.9,2.9,1.4,4.5,1.4c1.6,0.1,3.2-0.4,4.5-1.4c1.2-1,1.9-2.5,1.8-4.1c0-0.6-0.1-1.2-0.2-1.8
	c-0.2-0.7-0.5-1.3-0.9-1.9c-0.5-0.6-1.2-1.1-1.9-1.5c-1-0.4-2.1-0.6-3.2-0.6c-0.8,0-1.6,0.1-2.4,0.4c-0.8,0.2-1.5,0.6-2.1,1.1
	c-0.6,0.5-1.1,1.1-1.4,1.8c-0.4,0.8-0.5,1.6-0.5,2.5C573.6,648.3,574.3,649.8,575.6,650.8 M573.4,667.4c0.4,0.8,0.9,1.6,1.6,2.2
	c0.7,0.6,1.5,1.1,2.4,1.4c0.9,0.3,1.9,0.5,2.9,0.5c1,0,1.9-0.2,2.8-0.5c0.8-0.3,1.6-0.8,2.3-1.4c0.7-0.6,1.2-1.4,1.5-2.2
	c0.4-0.9,0.6-1.9,0.5-2.9c0-0.9-0.2-1.9-0.6-2.7c-0.4-0.8-0.9-1.5-1.6-2.1c-0.7-0.6-1.4-1.1-2.3-1.4c-0.9-0.3-1.8-0.5-2.8-0.5
	c-1.9-0.1-3.8,0.5-5.3,1.7c-1.5,1.2-2.3,3-2.2,4.9C572.7,665.5,572.9,666.5,573.4,667.4 M567.3,641c0.8-1.4,1.9-2.6,3.2-3.6
	c1.4-1,2.9-1.7,4.5-2.2c1.6-0.5,3.4-0.7,5.1-0.7c2.3-0.1,4.5,0.3,6.6,1.2c1.6,0.7,3.1,1.7,4.3,2.9c1,1,1.8,2.3,2.4,3.7
	c0.4,1.1,0.7,2.3,0.7,3.5c0,1.9-0.5,3.8-1.5,5.4c-1.1,1.6-2.7,2.8-4.6,3.3v0.1c2.3,0.4,4.4,1.7,5.8,3.6c1.4,1.9,2.1,4.3,2,6.7
	c0.1,2-0.4,4-1.3,5.8c-0.9,1.6-2.1,3-3.6,4.1c-1.5,1.1-3.2,1.9-5,2.4c-1.9,0.5-3.8,0.8-5.7,0.8c-2,0-4-0.3-5.9-0.8
	c-1.8-0.5-3.6-1.3-5.1-2.4c-3.2-2.3-5.1-6-4.9-9.9c-0.1-2.4,0.6-4.8,2.1-6.7c1.5-1.8,3.5-3.1,5.8-3.6v-0.1c-1.9-0.4-3.5-1.6-4.6-3.2
	c-1.1-1.6-1.6-3.5-1.5-5.4C566,644.2,566.4,642.5,567.3,641"/>
</svg>
